<svg width="24" height="18" viewBox="0 0 24 18" fill="none" xmlns="http://www.w3.org/2000/svg">
<path d="M23.0459 5.81768C23.2248 5.67545 23.4909 5.8085 23.4909 6.03332V15.4159C23.4909 16.6318 22.5045 17.6182 21.2887 17.6182H2.20228C0.986436 17.6182 0 16.6318 0 15.4159V6.0379C0 5.8085 0.26152 5.68003 0.445043 5.82226C1.47277 6.62059 2.83543 7.63455 7.51526 11.0343C8.48335 11.7409 10.1167 13.2274 11.7455 13.2182C13.3834 13.232 15.0489 11.7134 15.9803 11.0343C20.6601 7.63455 22.0182 6.616 23.0459 5.81768ZM11.7455 11.7455C12.8099 11.7638 14.3423 10.4058 15.1131 9.84601C21.2015 5.42769 21.6649 5.04229 23.0688 3.94115C23.3349 3.73469 23.4909 3.41353 23.4909 3.07401V2.20228C23.4909 0.986436 22.5045 0 21.2887 0H2.20228C0.986436 0 0 0.986436 0 2.20228V3.07401C0 3.41353 0.155994 3.7301 0.422103 3.94115C1.82605 5.0377 2.28945 5.42769 8.37782 9.84601C9.14862 10.4058 10.681 11.7638 11.7455 11.7455Z" fill="#F1F1F1"/>
</svg>
