<svg width="24" height="24" viewBox="0 0 24 24" fill="none" xmlns="http://www.w3.org/2000/svg">
<path d="M23.1753 0.876035C23.1207 0.622257 22.8698 0.371347 22.6152 0.316864C21.138 0 19.9814 0 18.8298 0C14.0934 0 11.2531 2.53276 9.13267 5.87273H4.35122C3.60118 5.87345 2.71986 6.41757 2.38355 7.08786L0.115418 11.6214C0.0453252 11.7761 0.00611774 11.9429 0 12.1125C0.000105464 12.4046 0.116188 12.6846 0.322727 12.8911C0.529265 13.0976 0.809351 13.2136 1.1014 13.2137H5.8643L4.83315 14.2445C4.31171 14.7658 4.23688 15.7245 4.83315 16.3206L7.16867 18.6563C7.68053 19.1695 8.64402 19.2599 9.24603 18.6563L10.2772 17.6254V22.3898C10.2773 22.6819 10.3934 22.9619 10.5999 23.1684C10.8064 23.3749 11.0865 23.4909 11.3786 23.4909C11.5483 23.4847 11.7151 23.4455 11.8698 23.3755L16.3996 21.1094C17.0707 20.7747 17.6158 19.8936 17.6158 19.143V14.3514C20.9466 12.2265 23.4901 9.37759 23.4901 4.66621C23.4944 3.50988 23.4944 2.35354 23.1753 0.876035ZM17.6201 7.70796C17.2571 7.70788 16.9023 7.60017 16.6006 7.39846C16.2988 7.19675 16.0637 6.91009 15.9248 6.57474C15.786 6.23939 15.7497 5.8704 15.8206 5.51443C15.8914 5.15846 16.0663 4.83149 16.3229 4.57487C16.5796 4.31826 16.9066 4.14351 17.2626 4.07274C17.6186 4.00196 17.9876 4.03833 18.3229 4.17725C18.6582 4.31616 18.9448 4.55139 19.1465 4.85318C19.3481 5.15497 19.4557 5.50978 19.4557 5.87273C19.4554 6.35946 19.2619 6.82616 18.9177 7.17028C18.5735 7.51441 18.1068 7.7078 17.6201 7.70796Z" fill="#F1F1F1"/>


</svg>
